<?xml version="1.0" encoding="UTF-8"?>
<svg version="1.1" xmlns="http://www.w3.org/2000/svg" width="184" height="86">
<path d="M0 0 C60.72 0 121.44 0 184 0 C184 28.38 184 56.76 184 86 C123.28 86 62.56 86 0 86 C0 57.62 0 29.24 0 0 Z " fill="#161514" transform="translate(0,0)"/>
<path d="M0 0 C3.3 0 6.6 0 10 0 C10.495 4.95 10.495 4.95 11 10 C11.66 9.67 12.32 9.34 13 9 C18.39737343 8.54064907 18.39737343 8.54064907 20.65942383 10.26489258 C22.25774194 12.33359533 22.41441591 13.42346315 22.51171875 16.01171875 C22.54716797 16.76904297 22.58261719 17.52636719 22.61914062 18.30664062 C22.65297852 19.48516602 22.65297852 19.48516602 22.6875 20.6875 C22.72166016 21.48478516 22.75582031 22.28207031 22.79101562 23.10351562 C22.87338104 25.06851904 22.93837067 27.03423696 23 29 C23.99 29.33 24.98 29.66 26 30 C25.63245492 37.35090153 25.63245492 37.35090153 22.625 40.4375 C13.19833309 46.04861126 -2.94848092 41.66133283 -13.375 40.5625 C-14.58220703 40.44036133 -15.78941406 40.31822266 -17.03320312 40.19238281 C-18.16435547 40.06831055 -19.29550781 39.94423828 -20.4609375 39.81640625 C-21.47978027 39.70756104 -22.49862305 39.59871582 -23.54833984 39.48657227 C-26 39 -26 39 -28 37 C-25.8765984 36.16260219 -23.7512272 35.33019717 -21.625 34.5 C-20.44164063 34.0359375 -19.25828125 33.571875 -18.0390625 33.09375 C-15 32 -15 32 -13 32 C-13.33 31.01 -13.66 30.02 -14 29 C-14.07973476 27.66474283 -14.10771338 26.32587917 -14.09765625 24.98828125 C-14.09443359 24.23095703 -14.09121094 23.47363281 -14.08789062 22.69335938 C-14.07951172 21.90767578 -14.07113281 21.12199219 -14.0625 20.3125 C-14.05798828 19.51521484 -14.05347656 18.71792969 -14.04882812 17.89648438 C-14.0370585 15.93095743 -14.01912348 13.96546915 -14 12 C-14.66 12 -15.32 12 -16 12 C-14.76163579 8.28490737 -12.77895064 6.71117136 -10 4 C-9.34 3.01 -8.68 2.02 -8 1 C-7.34 1 -6.68 1 -6 1 C-6 3.64 -6 6.28 -6 9 C-4.35 9 -2.7 9 -1 9 C-1 10.32 -1 11.64 -1 13 C-2.65 13 -4.3 13 -6 13 C-6 17.95 -6 22.9 -6 28 C-3.36 27.34 -0.72 26.68 2 26 C1.86157705 22.04137069 1.71300994 18.08318673 1.5625 14.125 C1.52318359 12.99707031 1.48386719 11.86914062 1.44335938 10.70703125 C1.40146484 9.63066406 1.35957031 8.55429687 1.31640625 7.4453125 C1.27974854 6.45031738 1.24309082 5.45532227 1.20532227 4.43017578 C1.15040468 1.99220499 1.15040468 1.99220499 0 0 Z " fill="#AB48B5" transform="translate(135,19)"/>
<path d="M0 0 C0.78826172 0.06574219 1.57652344 0.13148437 2.38867188 0.19921875 C4.32336232 0.3633743 6.25576994 0.55405825 8.1875 0.75 C8.1875 1.74 8.1875 2.73 8.1875 3.75 C7.1975 4.08 6.2075 4.41 5.1875 4.75 C5.31125 6.35875 5.31125 6.35875 5.4375 8 C5.1875 11.75 5.1875 11.75 3.75 14.125 C0.06670157 16.46075023 -3.52168538 16.56663185 -7.8125 16.75 C-7.8125 17.74 -7.8125 18.73 -7.8125 19.75 C-6.98105469 19.72679688 -6.14960937 19.70359375 -5.29296875 19.6796875 C-3.66294922 19.65261719 -3.66294922 19.65261719 -2 19.625 C-0.92105469 19.60179688 0.15789062 19.57859375 1.26953125 19.5546875 C4.1875 19.75 4.1875 19.75 7.1875 21.75 C7.875 24.875 7.875 24.875 8.1875 27.75 C9.12722656 27.71519531 9.12722656 27.71519531 10.0859375 27.6796875 C10.90320313 27.66164063 11.72046875 27.64359375 12.5625 27.625 C13.78066406 27.59019531 13.78066406 27.59019531 15.0234375 27.5546875 C17.1875 27.75 17.1875 27.75 19.1875 29.75 C17.58600114 30.42305018 15.98118971 31.08822227 14.375 31.75 C13.48167969 32.12125 12.58835937 32.4925 11.66796875 32.875 C9.1875 33.75 9.1875 33.75 6.1875 33.75 C6.1875 33.09 6.1875 32.43 6.1875 31.75 C5.67316406 31.90984375 5.15882812 32.0696875 4.62890625 32.234375 C1.43512997 32.90890055 -1.6121285 32.95882812 -4.875 33 C-6.10347656 33.02578125 -7.33195312 33.0515625 -8.59765625 33.078125 C-11.8125 32.75 -11.8125 32.75 -13.765625 31.37109375 C-14.8125 29.75 -14.8125 29.75 -14.5 27.5625 C-14.1596875 26.6653125 -14.1596875 26.6653125 -13.8125 25.75 C-13.1525 25.75 -12.4925 25.75 -11.8125 25.75 C-12.4725 24.76 -13.1325 23.77 -13.8125 22.75 C-13.46608161 19.28581611 -12.77963413 17.70070119 -10.8125 14.75 C-11.493125 14.04875 -12.17375 13.3475 -12.875 12.625 C-14.8125 9.75 -14.8125 9.75 -14.875 6.6875 C-12.16818062 -0.79605947 -6.85432885 -0.72392744 0 0 Z " fill="#F4F4F4" transform="translate(85.8125,28.25)"/>
<path d="M0 0 C3.3 0 6.6 0 10 0 C10.33 3.3 10.66 6.6 11 10 C11.66 9.67 12.32 9.34 13 9 C18.39737343 8.54064907 18.39737343 8.54064907 20.65942383 10.26489258 C22.25774194 12.33359533 22.41441591 13.42346315 22.51171875 16.01171875 C22.56489258 17.14770508 22.56489258 17.14770508 22.61914062 18.30664062 C22.64169922 19.09232422 22.66425781 19.87800781 22.6875 20.6875 C22.73874023 21.88342773 22.73874023 21.88342773 22.79101562 23.10351562 C22.87338104 25.06851904 22.93837067 27.03423696 23 29 C23.66 29.33 24.32 29.66 25 30 C25 30.66 25 31.32 25 32 C21.04 32 17.08 32 13 32 C13.33 31.01 13.66 30.02 14 29 C14.07029121 26.42734182 14.09370832 23.88358569 14.0625 21.3125 C14.05798828 20.61060547 14.05347656 19.90871094 14.04882812 19.18554688 C14.03706927 17.45699462 14.01913454 15.72848635 14 14 C13.01 14.33 12.02 14.66 11 15 C10.67 19.95 10.34 24.9 10 30 C10.66 30 11.32 30 12 30 C12 30.66 12 31.32 12 32 C8.04 32 4.08 32 0 32 C0 31.34 0 30.68 0 30 C0.66 29.67 1.32 29.34 2 29 C2.33 20.09 2.66 11.18 3 2 C2.01 1.67 1.02 1.34 0 1 C0 0.67 0 0.34 0 0 Z " fill="#FCFCFC" transform="translate(135,19)"/>
<path d="M0 0 C5.61 0 11.22 0 17 0 C17 0.66 17 1.32 17 2 C16.01 2.33 15.02 2.66 14 3 C13.98541748 3.70084717 13.97083496 4.40169434 13.95581055 5.1237793 C13.88114513 8.31223009 13.78454525 11.49965513 13.6875 14.6875 C13.66494141 15.79029297 13.64238281 16.89308594 13.61914062 18.02929688 C13.58369141 19.09599609 13.54824219 20.16269531 13.51171875 21.26171875 C13.48553467 22.24100342 13.45935059 23.22028809 13.43237305 24.22924805 C12.83166092 28.07875788 11.3944802 30.95413985 8.25 33.3125 C4.3127158 34.51555906 0.57903309 34.55479541 -3.3125 33.1875 C-5 32 -5 32 -7 29 C-6.625 25.8125 -6.625 25.8125 -6 23 C-4.02 23 -2.04 23 0 23 C0.79953138 26.28696233 1.09658936 27.71023192 0 31 C0.99 30.67 1.98 30.34 3 30 C3.33 21.09 3.66 12.18 4 3 C2.35 2.67 0.7 2.34 -1 2 C-0.67 1.34 -0.34 0.68 0 0 Z " fill="#EFEFEE" transform="translate(29,18)"/>
<path d="M0 0 C3.33118317 0.73665189 4.45361679 1.73079111 6.40234375 4.53125 C6.69349585 7.26807971 6.78556793 9.57065039 6.65234375 12.28125 C6.63429688 12.97863281 6.61625 13.67601562 6.59765625 14.39453125 C6.55072929 16.10736539 6.4789898 17.81948824 6.40234375 19.53125 C7.06234375 19.53125 7.72234375 19.53125 8.40234375 19.53125 C7.74234375 20.85125 7.08234375 22.17125 6.40234375 23.53125 C3.05981651 23.60552838 0.59875235 23.59671953 -2.59765625 22.53125 C-3.25765625 22.86125 -3.91765625 23.19125 -4.59765625 23.53125 C-6.93064285 23.57147391 -9.26472291 23.57445247 -11.59765625 23.53125 C-12.41015625 20.34375 -12.41015625 20.34375 -12.59765625 16.53125 C-9.54667209 12.37081706 -6.54093246 10.79580903 -1.59765625 9.53125 C-1.59765625 7.55125 -1.59765625 5.57125 -1.59765625 3.53125 C-2.91765625 3.86125 -4.23765625 4.19125 -5.59765625 4.53125 C-5.28828125 5.459375 -5.28828125 5.459375 -4.97265625 6.40625 C-4.84890625 7.1075 -4.72515625 7.80875 -4.59765625 8.53125 C-5.25765625 9.19125 -5.91765625 9.85125 -6.59765625 10.53125 C-9.22265625 10.15625 -9.22265625 10.15625 -11.59765625 9.53125 C-11.92765625 7.88125 -12.25765625 6.23125 -12.59765625 4.53125 C-8.65445075 0.32516413 -5.46280569 0.06733813 0 0 Z " fill="#F3F3F3" transform="translate(108.59765625,27.46875)"/>
<path d="M0 0 C3.33118317 0.73665189 4.45361679 1.73079111 6.40234375 4.53125 C6.69349585 7.26807971 6.78556793 9.57065039 6.65234375 12.28125 C6.63429688 12.97863281 6.61625 13.67601562 6.59765625 14.39453125 C6.55072929 16.10736539 6.4789898 17.81948824 6.40234375 19.53125 C7.06234375 19.53125 7.72234375 19.53125 8.40234375 19.53125 C7.74234375 20.85125 7.08234375 22.17125 6.40234375 23.53125 C3.05981651 23.60552838 0.59875235 23.59671953 -2.59765625 22.53125 C-3.25765625 22.86125 -3.91765625 23.19125 -4.59765625 23.53125 C-6.93064285 23.57147391 -9.26472291 23.57445247 -11.59765625 23.53125 C-12.41015625 20.34375 -12.41015625 20.34375 -12.59765625 16.53125 C-9.54667209 12.37081706 -6.54093246 10.79580903 -1.59765625 9.53125 C-1.59765625 7.55125 -1.59765625 5.57125 -1.59765625 3.53125 C-2.91765625 3.86125 -4.23765625 4.19125 -5.59765625 4.53125 C-5.28828125 5.459375 -5.28828125 5.459375 -4.97265625 6.40625 C-4.84890625 7.1075 -4.72515625 7.80875 -4.59765625 8.53125 C-5.25765625 9.19125 -5.91765625 9.85125 -6.59765625 10.53125 C-9.22265625 10.15625 -9.22265625 10.15625 -11.59765625 9.53125 C-11.92765625 7.88125 -12.25765625 6.23125 -12.59765625 4.53125 C-8.65445075 0.32516413 -5.46280569 0.06733813 0 0 Z " fill="#F3F3F3" transform="translate(60.59765625,27.46875)"/>
<path d="M0 0 C0.66 0 1.32 0 2 0 C2 2.64 2 5.28 2 8 C3.65 8 5.3 8 7 8 C7 9.32 7 10.64 7 12 C5.35 12 3.7 12 2 12 C2 16.95 2 21.9 2 27 C3.65 26.67 5.3 26.34 7 26 C5.125 29.875 5.125 29.875 4 31 C-2.36341719 31.47136424 -2.36341719 31.47136424 -4.70825195 29.73510742 C-6.27805558 27.62650898 -6.35167549 26.59094662 -6.29296875 23.98828125 C-6.28330078 23.23095703 -6.27363281 22.47363281 -6.26367188 21.69335938 C-6.23853516 20.90767578 -6.21339844 20.12199219 -6.1875 19.3125 C-6.17396484 18.51521484 -6.16042969 17.71792969 -6.14648438 16.89648438 C-6.11117089 14.93070033 -6.05736447 12.96526418 -6 11 C-6.66 11 -7.32 11 -8 11 C-6.76163579 7.28490737 -4.77895064 5.71117136 -2 3 C-1.34 2.01 -0.68 1.02 0 0 Z " fill="#F0EFF0" transform="translate(127,20)"/>
<path d="M0 0 C0.99 0.33 1.98 0.66 3 1 C3.0809723 3.43816585 3.14046972 5.87364384 3.1875 8.3125 C3.22520508 9.34793945 3.22520508 9.34793945 3.26367188 10.40429688 C3.33834499 15.55674183 3.33834499 15.55674183 1.48828125 17.98046875 C0.99714844 18.31691406 0.50601563 18.65335938 0 19 C0 18.34 0 17.68 0 17 C-0.66 17 -1.32 17 -2 17 C-2.05383848 14.54137599 -2.09359038 12.0839245 -2.125 9.625 C-2.14175781 8.92632812 -2.15851563 8.22765625 -2.17578125 7.5078125 C-2.19344267 5.67102514 -2.10303261 3.83398037 -2 2 C-1.34 1.34 -0.68 0.68 0 0 Z " fill="#B655A1" transform="translate(147,32)"/>
<path d="M0 0 C0.33 0.99 0.66 1.98 1 3 C1.62648438 2.97679687 2.25296875 2.95359375 2.8984375 2.9296875 C3.71570313 2.91164062 4.53296875 2.89359375 5.375 2.875 C6.18710938 2.85179687 6.99921875 2.82859375 7.8359375 2.8046875 C10 3 10 3 12 5 C10.39850114 5.67305018 8.79368971 6.33822227 7.1875 7 C6.29417969 7.37125 5.40085937 7.7425 4.48046875 8.125 C2 9 2 9 -1 9 C-1 8.34 -1 7.68 -1 7 C-1.66 6.67 -2.32 6.34 -3 6 C-2.34 5.67 -1.68 5.34 -1 5 C-0.34444881 2.47266765 -0.34444881 2.47266765 0 0 Z " fill="#9D39C8" transform="translate(93,53)"/>
<path d="M0 0 C0.66 0 1.32 0 2 0 C3.20272819 2.40545638 3.10071472 3.94996953 3.0625 6.625 C3.05347656 7.44226562 3.04445313 8.25953125 3.03515625 9.1015625 C3.02355469 9.72804688 3.01195313 10.35453125 3 11 C1.68 11.33 0.36 11.66 -1 12 C-2.11445498 9.77109005 -2.16480286 8.46944894 -2.1875 6 C-2.20167969 5.29875 -2.21585937 4.5975 -2.23046875 3.875 C-2 2 -2 2 0 0 Z " fill="#1C1B19" transform="translate(81,30)"/>
<path d="M0 0 C1.45742463 -0.08096803 2.91612807 -0.13917774 4.375 -0.1875 C5.18710938 -0.22230469 5.99921875 -0.25710937 6.8359375 -0.29296875 C7.55007812 -0.19628906 8.26421875 -0.09960938 9 0 C9.66 0.99 10.32 1.98 11 3 C7.33134759 5.44576827 5.32799657 5.23607254 1 5 C0.34 4.67 -0.32 4.34 -1 4 C-0.67 2.68 -0.34 1.36 0 0 Z " fill="#2E2D2B" transform="translate(78,54)"/>
<path d="M0 0 C0.99 0.33 1.98 0.66 3 1 C3 3.31 3 5.62 3 8 C1.35 8.33 -0.3 8.66 -2 9 C-2.125 5.625 -2.125 5.625 -2 2 C-1.34 1.34 -0.68 0.68 0 0 Z " fill="#181615" transform="translate(147,32)"/>
<path d="M0 0 C1.65 0 3.3 0 5 0 C5 1.98 5 3.96 5 6 C3.35 6.66 1.7 7.32 0 8 C0.185625 7.236875 0.37125 6.47375 0.5625 5.6875 C1.22819173 2.91032625 1.22819173 2.91032625 0 0 Z " fill="#22211F" transform="translate(102,31)"/>
<path d="M0 0 C1.65 0 3.3 0 5 0 C5 1.98 5 3.96 5 6 C3.35 6.66 1.7 7.32 0 8 C0.185625 7.236875 0.37125 6.47375 0.5625 5.6875 C1.22819173 2.91032625 1.22819173 2.91032625 0 0 Z " fill="#22211F" transform="translate(54,31)"/>
<path d="M0 0 C0.33 0 0.66 0 1 0 C1.06058594 0.74765625 1.12117187 1.4953125 1.18359375 2.265625 C1.26738281 3.25046875 1.35117188 4.2353125 1.4375 5.25 C1.51871094 6.22453125 1.59992188 7.1990625 1.68359375 8.203125 C1.95074584 10.56461753 2.35371968 12.71901065 3 15 C2.01 14.67 1.02 14.34 0 14 C0 9.38 0 4.76 0 0 Z " fill="#96698A" transform="translate(157,34)"/>
<path d="M0 0 C0.33 0 0.66 0 1 0 C1 1.98 1 3.96 1 6 C-0.32 6 -1.64 6 -3 6 C-2.42655063 3.13275314 -2.1385485 2.1385485 0 0 Z " fill="#21201E" transform="translate(106,40)"/>
<path d="M0 0 C0.33 0 0.66 0 1 0 C1 1.98 1 3.96 1 6 C-0.32 6 -1.64 6 -3 6 C-2.42655063 3.13275314 -2.1385485 2.1385485 0 0 Z " fill="#21201E" transform="translate(58,40)"/>
</svg>
